<svg width="100" height="100" viewBox="0 0 100 100" fill="none" xmlns="http://www.w3.org/2000/svg">
<rect width="100" height="100" fill="#27EB00"/>
<path d="M20 70V59.5818H30.4309V70H20Z" fill="black"/>
<path d="M37.6879 70L27.8988 31H39.0787L41.8602 44.3636L43.7325 55.2182H43.8394C44.517 51.3273 45.1767 47.8909 45.8186 44.9091L48.7607 31H58.8707L61.8127 44.8L63.7384 55.2182H63.8454C64.523 50.8182 65.1649 47.1636 65.7711 44.2545L68.5527 31H80L69.9435 70H58.6567L55.2332 53.4727L53.8959 45.8909H53.7889C53.361 48.6909 52.9152 51.2182 52.4516 53.4727L49.1351 70H37.6879Z" fill="black"/>
</svg>
